<svg xmlns="http://www.w3.org/2000/svg" xmlns:xlink="http://www.w3.org/1999/xlink"><symbol id="sprite-icon-arrow-down" viewBox="0 0 16 10"><path fill-rule="evenodd" d="m15.68 2.42-6.91 6.91a1.1 1.1 0 0 1-1.54 0l-6.91-6.9a1.09 1.09 0 0 1 1.54-1.55l6 6.02h.27l6.02-6.02a1.09 1.09 0 0 1 1.53 1.54" clip-rule="evenodd"/></symbol><use xlink:href="#sprite-icon-arrow-down" width="16" height="10"/><view id="sprite-icon-arrow-down-view" viewBox="0 0 16 10"/><symbol id="sprite-icon-chevron-down" viewBox="0 0 25 24"><path fill-rule="evenodd" d="M12.87 15.66a.56.56 0 0 1-.8 0l-5.74-5.73a.56.56 0 0 1 0-.8l.27-.26a.56.56 0 0 1 .8 0l5.07 5.07 5.07-5.07a.56.56 0 0 1 .8 0l.26.26c.22.22.22.58 0 .8z" clip-rule="evenodd"/></symbol><use xlink:href="#sprite-icon-chevron-down" width="25" height="24" y="10"/><view id="sprite-icon-chevron-down-view" viewBox="0 10 25 24"/><symbol id="sprite-icon-plus" viewBox="0 0 24 25"><g clip-path="url(#clip0_1193_482)"><path fill-rule="evenodd" d="m19.68 9.42-6.91 6.91a1.1 1.1 0 0 1-1.54 0l-6.91-6.9a1.09 1.09 0 0 1 1.54-1.55l6 6.02h.27l6.02-6.02a1.09 1.09 0 0 1 1.53 1.54" clip-rule="evenodd"/></g><defs><clipPath id="clip0_1193_482"><rect transform="translate(0 .566)"/></clipPath></defs></symbol><use xlink:href="#sprite-icon-plus" width="24" height="25" y="34"/><view id="sprite-icon-plus-view" viewBox="0 34 24 25"/><symbol id="sprite-icon-right" viewBox="0 0 28 28"><path d="M27.5 14c0-.84-.67-1.5-1.5-1.5h-24a1.5 1.5 0 0 0 0 3h24c.83 0 1.5-.68 1.5-1.5"/><path d="M12.94.94a1.5 1.5 0 0 0 0 2.12l10.94 10.94-10.94 10.94a1.5 1.5 0 1 0 2.12 2.12l12-12a1.5 1.5 0 0 0 0-2.12l-12-12a1.5 1.5 0 0 0-2.12 0"/></symbol><use xlink:href="#sprite-icon-right" width="28" height="28" y="59"/><view id="sprite-icon-right-view" viewBox="0 59 28 28"/></svg>